<svg xmlns="http://www.w3.org/2000/svg" width="15" height="15" viewBox="0 0 15 15">
    <g fill="none" fill-rule="evenodd">
        <g fill="#121212" fill-rule="nonzero">
            <g transform="translate(-71 -1464) translate(71 1464)">
                <path d="M0 4H3V15H0zM11 4C9.143 4 8.42 5 7.965 6L8 4H5.031C5.078 5 5 15 5 15h3V9.155c0-.31.019-.624.104-.847.25-.624 1.007-1.272 1.962-1.272C11.313 7.036 12 8 12 9.4V15h3V8.998C15 5.794 13.257 4 11 4z"/>
                <circle cx="1.5" cy="1.5" r="1.5"/>
            </g>
        </g>
    </g>
</svg>
