<svg xmlns="http://www.w3.org/2000/svg" width="138" height="18" viewBox="0 0 138 18">
    <g fill="none" fill-rule="evenodd">
        <g>
            <g transform="translate(-653 -276) translate(653 276)">
                <circle cx="135.5" cy="14.842" r="2.5" fill="#ED1C26"/>
                <path fill="#FFF" fill-rule="nonzero" d="M11.183 0C18.537 0 22.36 3.738 22.36 8.683s-3.83 8.683-11.177 8.683C3.836 17.366 0 13.628 0 8.683S3.83 0 11.183 0zm92.99.355V3.69H89.674v3.064h13.059v3.333H89.674v3.567h14.964v3.333l-18.53.025V.355h18.065zm-63.117 0l9.554 16.656h-4.112l-1.93-3.334H33.439l-1.905 3.334h-4.118L36.956.355h4.1zm20.865 0V8.72L73.264.355h5.215l-5.736 4.161-5.503 3.916-.012.012 6.134 4.4 5.662 4.16h-5.447l-8.861-6.758-2.795 2.01v4.749H58.35V.355h3.572zm54.048 0l3.499 4.161 3.603 4.56 7.218-8.72h4.523l-14.107 16.649h-4.197l4.473-5.405L111.453.355h4.516zM11.183 3.327c-5.16 0-7.543 2.213-7.543 5.356 0 3.144 2.378 5.356 7.543 5.356 5.16 0 7.537-2.212 7.537-5.356 0-3.143-2.377-5.356-7.537-5.356zm27.845.147l-3.4 6.398-.289.478h7.353l-.263-.478-3.401-6.398z"/>
            </g>
        </g>
    </g>
</svg>
