<svg xmlns="http://www.w3.org/2000/svg" width="15" height="15" viewBox="0 0 15 15">
    <g fill="none" fill-rule="evenodd">
        <g fill="#121212" fill-rule="nonzero">
            <g>
                <path d="M7.5 0C11.642 0 15 3.11 15 6.944c0 3.836-3.358 6.945-7.5 6.945-.748 0-1.47-.102-2.151-.29L2.795 15v-2.648C1.091 11.08 0 9.13 0 6.944 0 3.11 3.358 0 7.5 0zm-.432 5L3.75 8.377c-.061.062-.075.156-.035.233.052.098.172.136.27.084l2.7-1.414 1.962 2.006 3.302-3.362c.061-.062.075-.157.034-.234-.052-.097-.173-.134-.27-.083l-2.636 1.4L7.067 5z" transform="translate(-161 -1464) translate(161 1464)"/>
            </g>
        </g>
    </g>
</svg>
