<svg xmlns="http://www.w3.org/2000/svg" width="401" height="401" viewBox="0 0 401 401">
    <g fill="none" fill-rule="evenodd">
        <g fill="#FFF">
            <g>
                <path d="M0 0h1v1H0V0zm40 0h1v1h-1V0zm40 0h1v1h-1V0zm40 0h1v1h-1V0zm40 0h1v1h-1V0zm40 0h1v1h-1V0zm40 0h1v1h-1V0zm40 0h1v1h-1V0zm40 0h1v1h-1V0zm40 0h1v1h-1V0zm40 0h1v1h-1V0zM0 40h1v1H0v-1zm40 0h1v1h-1v-1zm40 0h1v1h-1v-1zm40 0h1v1h-1v-1zm40 0h1v1h-1v-1zm40 0h1v1h-1v-1zm40 0h1v1h-1v-1zm40 0h1v1h-1v-1zm40 0h1v1h-1v-1zm40 0h1v1h-1v-1zm40 0h1v1h-1v-1zM0 80h1v1H0v-1zm40 0h1v1h-1v-1zm40 0h1v1h-1v-1zm40 0h1v1h-1v-1zm40 0h1v1h-1v-1zm40 0h1v1h-1v-1zm40 0h1v1h-1v-1zm40 0h1v1h-1v-1zm40 0h1v1h-1v-1zm40 0h1v1h-1v-1zm40 0h1v1h-1v-1zM0 120h1v1H0v-1zm40 0h1v1h-1v-1zm40 0h1v1h-1v-1zm40 0h1v1h-1v-1zm40 0h1v1h-1v-1zm40 0h1v1h-1v-1zm40 0h1v1h-1v-1zm40 0h1v1h-1v-1zm40 0h1v1h-1v-1zm40 0h1v1h-1v-1zm40 0h1v1h-1v-1zM0 160h1v1H0v-1zm40 0h1v1h-1v-1zm40 0h1v1h-1v-1zm40 0h1v1h-1v-1zm40 0h1v1h-1v-1zm40 0h1v1h-1v-1zm40 0h1v1h-1v-1zm40 0h1v1h-1v-1zm40 0h1v1h-1v-1zm40 0h1v1h-1v-1zm40 0h1v1h-1v-1zM0 200h1v1H0v-1zm40 0h1v1h-1v-1zm40 0h1v1h-1v-1zm40 0h1v1h-1v-1zm40 0h1v1h-1v-1zm40 0h1v1h-1v-1zm40 0h1v1h-1v-1zm40 0h1v1h-1v-1zm40 0h1v1h-1v-1zm40 0h1v1h-1v-1zm40 0h1v1h-1v-1zM0 240h1v1H0v-1zm40 0h1v1h-1v-1zm40 0h1v1h-1v-1zm40 0h1v1h-1v-1zm40 0h1v1h-1v-1zm40 0h1v1h-1v-1zm40 0h1v1h-1v-1zm40 0h1v1h-1v-1zm40 0h1v1h-1v-1zm40 0h1v1h-1v-1zm40 0h1v1h-1v-1zM0 280h1v1H0v-1zm40 0h1v1h-1v-1zm40 0h1v1h-1v-1zm40 0h1v1h-1v-1zm40 0h1v1h-1v-1zm40 0h1v1h-1v-1zm40 0h1v1h-1v-1zm40 0h1v1h-1v-1zm40 0h1v1h-1v-1zm40 0h1v1h-1v-1zm40 0h1v1h-1v-1zM0 320h1v1H0v-1zm40 0h1v1h-1v-1zm40 0h1v1h-1v-1zm40 0h1v1h-1v-1zm40 0h1v1h-1v-1zm40 0h1v1h-1v-1zm40 0h1v1h-1v-1zm40 0h1v1h-1v-1zm40 0h1v1h-1v-1zm40 0h1v1h-1v-1zm40 0h1v1h-1v-1zM0 360h1v1H0v-1zm40 0h1v1h-1v-1zm40 0h1v1h-1v-1zm40 0h1v1h-1v-1zm40 0h1v1h-1v-1zm40 0h1v1h-1v-1zm40 0h1v1h-1v-1zm40 0h1v1h-1v-1zm40 0h1v1h-1v-1zm40 0h1v1h-1v-1zm40 0h1v1h-1v-1zM0 400h1v1H0v-1zm40 0h1v1h-1v-1zm40 0h1v1h-1v-1zm40 0h1v1h-1v-1zm40 0h1v1h-1v-1zm40 0h1v1h-1v-1zm40 0h1v1h-1v-1zm40 0h1v1h-1v-1zm40 0h1v1h-1v-1zm40 0h1v1h-1v-1zm40 0h1v1h-1v-1z" transform="translate(-519 -350) translate(519 350)"/>
            </g>
        </g>
    </g>
</svg>
