<svg xmlns="http://www.w3.org/2000/svg" width="14" height="14" viewBox="0 0 14 14">
    <g fill="none" fill-rule="evenodd">
        <g fill="#121212" fill-rule="nonzero">
            <g>
                <path d="M7.72 5.432L5.578 3.825v6.315l2.14-1.607 2.07-1.55-2.07-1.551zm0 0L5.578 3.825v6.315l2.14-1.607 2.07-1.55-2.07-1.551zm0 0L5.578 3.825v6.315l2.14-1.607 2.07-1.55-2.07-1.551zM6.28 1.418V0C4.87.14 3.587.702 2.548 1.55l.997 1.004c.779-.603 1.712-1.01 2.737-1.136zM2.555 3.544l-1.003-.997C.7 3.586.14 4.87 0 6.281h1.418c.126-1.025.533-1.958 1.136-2.737zm-1.136 4.14H0c.14 1.41.702 2.695 1.55 3.734l1.004-1.004c-.603-.772-1.01-1.705-1.136-2.73zm1.13 4.73c1.038.85 2.33 1.41 3.733 1.55v-1.417c-1.025-.126-1.958-.533-2.737-1.136l-.997 1.003zM14 6.982c0 3.622-2.75 6.611-6.28 6.983v-1.418c2.75-.365 4.876-2.722 4.876-5.565 0-2.842-2.126-5.2-4.877-5.564V0C11.25.372 14 3.361 14 6.982z" transform="translate(-71 -1273) translate(71 1273)"/>
            </g>
        </g>
    </g>
</svg>
